<?xml version="1.0" encoding="utf-8"?>
<!-- Generator: Adobe Illustrator 27.4.0, SVG Export Plug-In . SVG Version: 6.00 Build 0)  -->
<svg version="1.1" id="レイヤー_1" xmlns="http://www.w3.org/2000/svg" xmlns:xlink="http://www.w3.org/1999/xlink" x="0px"
	 y="0px" viewBox="0 0 500 100" style="enable-background:new 0 0 500 100;" xml:space="preserve">
<style type="text/css">
	.st0{fill:#000333;}
</style>
<g>
	<path class="st0" d="M84.4,25.2c0,2.8-0.1,7.1-0.3,12.8c-0.2,5.7-0.3,10-0.3,12.8v24.6c0,0.7-0.3,1-1,1c-0.5,0-1.4,0-2.5,0.1
		s-1.9,0.1-2.5,0.1c-0.6,0-1.5-0.1-2.7-0.1c-1.2-0.1-2.1-0.1-2.7-0.1c-0.4,0-0.9-0.4-1.5-1.2c-1.6-2.4-5.3-7.8-11.1-16
		c-1.6-2.3-4-5.7-7.2-10.2c-0.1-0.1-0.3-0.3-0.5-0.4c-0.2,0.2-0.3,0.4-0.3,0.8c0,2.9,0.1,7.2,0.2,13c0.1,5.8,0.2,10.1,0.2,13
		c0,0.9-0.3,1.3-0.9,1.3H39.6c-0.7,0-1-0.4-1-1.2c0-2.7,0.1-6.7,0.4-12.2c0.2-5.4,0.4-9.5,0.4-12.2c0-2.9-0.1-7.1-0.3-12.8
		c-0.2-5.7-0.3-10-0.3-12.8c0-0.5,0.4-0.8,1.3-0.8c1.3,0,3-0.1,4.9-0.3c0.5,0,1.4-0.2,2.7-0.5c1.1-0.2,2-0.3,2.7-0.3
		c0.3,0,0.7,0.4,1.3,1.3l12.8,19.1c1.1,1.7,2.9,4.2,5.2,7.5c0.6,0.8,1.1,1.2,1.5,1.2c0.3,0,0.4-1,0.4-2.9c0-2.6-0.1-6.5-0.4-11.8
		c-0.3-5.2-0.4-9.2-0.4-11.8c0-0.9,0.2-1.4,0.7-1.4c1.4,0,3.4-0.1,6.2-0.2c2.8-0.1,4.8-0.2,6.2-0.2C84.2,24,84.4,24.4,84.4,25.2z"/>
	<path class="st0" d="M122,56.1c0,2.5-0.7,3.9-2.2,4.3c-0.3,0-2.6,0.3-7.1,0.8c-2.7,0.3-6.7,0.7-12.1,1.2c0.3,1.6,1.3,2.8,2.9,3.7
		c1.3,0.7,2.8,1,4.5,1c2,0,4.1-0.6,6.1-1.8c0.9-0.6,1.7-1.2,2.6-1.8c0.5,0.2,1.3,1.5,2.4,3.8c1.1,2.3,1.7,3.7,1.7,4.4
		c0,0.2-0.2,0.5-0.5,0.9c-2.8,3.3-7.1,4.9-13,4.9c-5.4,0-9.8-1.7-13.2-5.2c-3.4-3.5-5.1-8.2-5.1-14.1c0-5.7,1.5-10.4,4.6-14.1
		c3.2-3.8,7.3-5.7,12.5-5.7c4.4,0,8.1,1.7,11.2,5.2C120.4,47.2,122,51.3,122,56.1z M110,53.8c0-1.5-0.5-2.9-1.5-4.1
		c-1-1.2-2.2-1.8-3.6-1.8c-1.4,0-2.6,0.7-3.6,2c-0.9,1.2-1.3,2.6-1.3,4.3c0,0.7,0.3,1,1,1c1.7,0,4.3-0.3,7.9-0.9
		C109.6,54.3,110,54.1,110,53.8z"/>
	<path class="st0" d="M174.9,50.3c0,3.9-0.3,6.6-0.9,8.1c-0.6,1.6-2.1,4.6-4.5,8.9c-2.4,4.5-4.1,7.2-5,8.3c-0.6,0.7-2.1,1.1-4.5,1.1
		c-2,0-3.2-0.1-3.8-0.2c-0.4-0.1-0.8-0.4-1.2-0.7c-1.3-1.4-3.3-4.8-6-10.3c-2.9,5.6-4.8,9-5.9,10.3c-0.5,0.6-2,1-4.5,1
		c-1.7,0-2.9-0.1-3.4-0.2c-1.1-0.3-3.1-3-5.8-8.1c-2.2-4.1-3.8-7.4-4.8-9.9c-0.6-1.6-0.9-4.3-0.9-8.1c0-4.6,0.1-7.4,0.3-8.4
		c0.2-0.6,0.6-1,1.2-1c1.1,0,2.6,0,4.7,0.1c2.1,0.1,3.7,0.1,4.7,0.1c0.5,0,0.8,0.4,0.8,1.2c0,0.7,0,1.8-0.1,3.3
		c0,1.5-0.1,2.6-0.1,3.3c0,3,0.1,5.2,0.2,6.7c0,0.5,0.7,1.9,1.8,4.2c1.2,2.3,1.9,3.4,2.2,3.4c0.4,0,1.2-1.1,2.3-3.3
		c0.9-1.9,1.5-3.3,1.7-4.2c0.3-0.9,0.4-3.2,0.4-6.7c0-0.7-0.1-1.9-0.2-3.3c-0.1-1.5-0.2-2.6-0.2-3.3c0-0.8,0.3-1.2,0.8-1.2
		c0.6,0,1.9,0,3.8,0l1.4,0c0,0-0.1,0-0.1,0c-0.1,0-0.1,0-0.1,0h0.2h0.9c0.9,0,2.1,0,3.8,0.1c0.5,0.1,0.8,0.5,0.8,1.2
		c0,0.9-0.1,2.4-0.2,4.3c-0.1,1.9-0.2,3.4-0.2,4.3c0,2.5,0.1,4.1,0.3,4.8c0.3,0.8,0.8,2.2,1.6,4.1c1,2.2,1.7,3.4,2.2,3.4
		c0.4,0,1.2-1.1,2.3-3.4c1.1-2.2,1.6-3.6,1.7-4.3c0.1-0.9,0.1-5.3,0.1-13.2c0-0.9,0.2-1.3,0.7-1.3c1.1,0,2.6,0,4.7-0.1
		c2.1-0.1,3.7-0.1,4.7-0.1c0.6,0,1,0.3,1.2,1C174.8,42.9,174.9,45.7,174.9,50.3z"/>
	<path class="st0" d="M198.9,46.2c0,0.2-0.2,0.6-0.5,1c-0.6-0.2-1.3-0.3-1.9-0.3c-1.3,0-2.5,0.3-3.4,1c-1.1,0.7-1.6,1.8-1.6,3.2
		c0,0.9,0.6,2,1.7,3.3c1.8,2,2.8,3.4,3.3,4.1c1.2,1.9,1.7,3.9,1.7,6.1c0,1.3-0.2,2.6-0.7,4c-0.5,1.6-1.2,2.7-2,3.4
		c-1.7,1.6-3.7,2.9-5.9,4c-2.4,1.1-4.7,1.7-6.8,1.7c-0.5,0-1.5-1.3-3.1-4s-2.4-4.3-2.4-4.9c0-0.2,0.1-0.4,0.4-0.4
		c1.6-0.3,3.2-0.6,4.8-1c2-0.7,3-1.8,3-3.4c0-1.1-0.6-2.4-1.7-3.8c-2.1-2.5-3.2-3.8-3.3-4c-1.2-1.8-1.7-3.7-1.7-5.7
		c0-3.7,1.7-6.9,5.2-9.5c3.1-2.3,6.4-3.5,10-3.5c0.4,0,1.3,1.3,2.7,4C198.2,44.2,198.9,45.7,198.9,46.2z"/>
	<path class="st0" d="M265.5,74.7c0,1.1-0.6,1.7-1.7,1.7c-0.7,0-1.8,0-3.3,0.1c-1.5,0.1-2.6,0.1-3.3,0.1c-2.8,0-6.1-2.3-9.8-6.9
		c-1.2,1.2-3,2.9-5.6,5.2c-2.6,1.9-5.6,2.8-9.2,2.8c-3.7,0-6.5-1.4-8.7-4.2c-2-2.6-3-5.9-3-10c0-4.2,1.1-7.7,3.4-10.5
		c1.3-1.5,4-3.8,8.3-6.8c-1.4-3.9-2.1-6.9-2.1-9.1c0-4.2,1.1-7.5,3.3-10c2.2-2.5,5.2-3.7,9-3.7c3.3,0,5.9,1,7.8,2.9
		c1.9,2,2.9,4.8,2.9,8.4c0,2.4-0.8,4.6-2.5,6.7c-0.7,0.9-1.7,1.8-2.9,2.8c-1.6,1.3-2.7,2.2-3.1,2.5c0.5,0.9,1.4,2.2,2.6,3.9
		c0.6,0.8,1.6,2.1,2.8,3.7c1.8-2.5,3.4-4.3,4.8-5.4c1.9-1.4,4.1-2.2,6.5-2.2c1.3,0,2.1,0.1,2.4,0.2c0.5,0.3,0.8,1,0.8,2.2
		c0,2.9-0.2,5.1-0.5,6.6c-0.1,0.6-0.7,1-1.7,1.2c-1.6,0.4-2.7,0.7-3.3,1c-1.4,0.7-2.7,2-3.6,3.7c1.4,2.5,3.8,3.8,7.1,3.8
		c1.6,0,2.5,0.3,2.5,1V74.7z M243.1,62.9c-1-1-2.2-2.5-3.4-4.3c-2-2.9-3-4.4-3.1-4.6c-1.3,0.8-2.5,1.9-3.4,3.4
		c-1,1.6-1.5,3.2-1.5,4.7c0,1.6,0.4,2.9,1.3,4c0.9,1.1,2,1.6,3.5,1.6c1.3,0,2.7-0.5,4-1.5C241.7,65.4,242.6,64.3,243.1,62.9z
		 M246.7,33.9c0-2.3-1.3-3.5-3.8-3.5c-1.2,0-2.3,0.4-3.1,1.2c-0.9,0.8-1.3,1.9-1.3,3.2c0,2.2,0.7,4.3,2.2,6.3
		C244.7,38.6,246.7,36.2,246.7,33.9z"/>
	<path class="st0" d="M321.6,35.4c0,0.5-0.3,0.7-0.8,0.7c-0.9,0-4.3-0.2-10.3-0.6c-0.1,6.3-0.2,10.7-0.2,13.2
		c0,2.9,0.1,7.3,0.3,13.2c0.2,5.9,0.3,10.3,0.3,13.2c0,0.5-0.1,0.8-0.3,0.9c-0.1,0-0.4,0.1-1,0.2c-1.4,0.2-3.4,0.3-6,0.3
		c-2.9,0-5-0.1-6.2-0.3c-0.6-0.1-1-0.5-1-1.2c0-2.9,0.1-7.3,0.3-13.2c0.2-5.9,0.3-10.3,0.3-13.2c0-1.9-0.1-6.3-0.3-13
		c-4.6,0.5-8.2,0.7-10.9,0.7c-0.4,0-0.5-0.1-0.5-0.4c0-0.3,0.2-1.3,0.5-2.9c0.4-1.7,0.6-2.8,0.6-3.2c0.1-1.2,0.1-2.3,0.2-3.5
		c0.2-1.9,0.4-2.8,0.8-2.8c0,0,0.2,0,0.5,0c3.7,0.5,9.2,0.8,16.4,0.8c2.1,0,5.8-0.2,11.4-0.7c3-0.2,4.5-0.4,4.5-0.4
		c0.5,0,0.7,0,0.8,0.1c0.1,0.1,0.1,0.3,0.1,0.7c0,0.7,0,1.6-0.1,2.8c0,1.3-0.1,2.3-0.1,2.8c0,0.6,0.1,1.5,0.2,2.7
		C321.5,33.9,321.6,34.8,321.6,35.4z"/>
	<path class="st0" d="M358,58c0,5.7-1.6,10.3-4.8,13.8c-3.2,3.5-7.4,5.3-12.6,5.3c-5,0-9.2-1.7-12.4-5.2c-3.2-3.5-4.9-8-4.9-13.4
		c0-5.8,1.6-10.5,4.7-14c3.1-3.6,7.3-5.4,12.6-5.4c5.2,0,9.3,1.8,12.5,5.3C356.4,47.8,358,52.4,358,58z M346.8,58
		c0-2-0.6-3.7-1.7-5.2c-1.1-1.5-2.6-2.3-4.4-2.3c-1.8,0-3.3,0.8-4.5,2.3c-1.1,1.4-1.6,3.2-1.6,5.1c0,2,0.5,3.7,1.6,5.2
		c1.2,1.5,2.7,2.3,4.5,2.3c1.8,0,3.3-0.8,4.4-2.3C346.2,61.8,346.8,60,346.8,58z"/>
	<path class="st0" d="M400,58.4c0,5.3-1.4,9.7-4.3,13.2c-3,3.6-6.9,5.4-11.7,5.4c-1.8,0-3.6-0.5-5.7-1.4c-2-0.9-2.9-1.4-2.7-1.4
		c-0.3,0-0.4,0.4-0.4,1.1c0,1.3,0.1,3.2,0.2,5.7c0.1,2.5,0.2,4.5,0.2,5.7c0,0.8-0.4,1.2-1.1,1.2l-7,0c-1.6,0-2.6-0.1-3.1-0.2
		c-0.7-0.2-1-0.6-1-1.4l0.1-28.7c0-5.8-0.4-10.7-1.2-14.7c0-0.2-0.1-0.5-0.1-0.6c0-0.4,0.1-0.6,0.4-0.7c0.9-0.4,2.6-0.8,5.1-1.2
		c2.4-0.4,4.2-0.6,5.3-0.6c0.9,0,1.4,0.6,1.5,1.9c0.1,1.3,0.3,1.9,0.5,1.9c-0.2,0,0.7-0.7,2.9-2c2.2-1.4,4.2-2,5.9-2
		c5,0,8.9,1.8,11.9,5.3C398.5,48.5,400,52.9,400,58.4z M387.2,58.3c0-2-0.6-3.7-1.7-5.2c-1.2-1.6-2.7-2.4-4.5-2.4
		c-1.8,0-3.3,0.8-4.4,2.4c-1,1.4-1.4,3.2-1.4,5.2c0,2.1,0.5,3.9,1.5,5.3c1.1,1.5,2.6,2.3,4.5,2.3C385.2,65.9,387.2,63.4,387.2,58.3z
		"/>
	<path class="st0" d="M417.1,59.2c0,1.8,0,4.5,0.1,8.1c0.1,3.6,0.1,6.3,0.1,8.1c0,0.5-0.3,0.8-0.9,0.9c-0.8,0.1-2.5,0.2-5.2,0.2
		c-2.7,0-4.5-0.1-5.3-0.2c-0.5-0.1-0.8-0.3-0.9-0.5c0-0.1-0.1-0.5-0.1-1.1c0-1.7,0-4.3,0.1-7.7c0.1-3.4,0.1-6,0.1-7.8
		c0-7.1-0.3-12.7-0.8-16.9c0-0.4-0.1-0.7-0.1-0.8c0-0.5,0.3-0.7,0.9-0.7c0.6,0,1.6,0.1,2.9,0.2c1.3,0.1,2.3,0.2,3,0.2s1.7-0.1,3-0.2
		c1.3-0.1,2.3-0.2,3-0.2c0.5,0,0.8,0.2,0.8,0.7c0,0.1,0,0.3-0.1,0.7C417.4,47.2,417.1,52.9,417.1,59.2z M418,31.5
		c0,4.3-2.2,6.5-6.7,6.5c-1.9,0-3.5-0.5-4.8-1.6c-1.4-1.2-2.1-2.8-2.1-4.8c0-1.9,0.7-3.5,2.1-4.8c1.3-1.1,2.9-1.7,4.7-1.7
		c1.8,0,3.3,0.6,4.6,1.8C417.3,28,418,29.6,418,31.5z"/>
	<path class="st0" d="M446.4,51.8c0,0-0.7-0.2-2.1-0.6c-1.4-0.4-2.5-0.6-3.3-0.6c-2,0-3.7,0.7-4.9,2c-1.2,1.3-1.8,3.1-1.8,5.3
		c0,2.3,0.7,4.1,2,5.4s3.1,2,5.2,2c1,0,2.1-0.3,3.4-0.8s1.9-0.8,1.8-0.8c0.4,0,0.9,1.6,1.5,4.7c0.5,2.9,0.8,4.8,0.8,5.7
		s-1.4,1.8-4.2,2.4c-2.2,0.5-4,0.8-5.3,0.8c-5,0-9.2-1.8-12.4-5.5c-3.3-3.7-4.9-8.3-4.9-13.8c0-5.4,1.6-10,4.9-13.7
		c3.3-3.7,7.4-5.6,12.4-5.6c3.4,0,6.4,0.8,9,2.4c0.6,0.3,0.9,0.7,0.9,1s-0.3,1.8-1,4.4c-0.6,2.5-1.1,4-1.3,4.6
		S446.6,51.8,446.4,51.8z"/>
	<path class="st0" d="M473,46.2c0,0.2-0.2,0.6-0.5,1c-0.6-0.2-1.3-0.3-1.9-0.3c-1.3,0-2.5,0.3-3.4,1c-1.1,0.7-1.6,1.8-1.6,3.2
		c0,0.9,0.6,2,1.7,3.3c1.8,2,2.8,3.4,3.3,4.1c1.2,1.9,1.7,3.9,1.7,6.1c0,1.3-0.2,2.6-0.7,4c-0.5,1.6-1.2,2.7-2,3.4
		c-1.7,1.6-3.7,2.9-5.9,4c-2.4,1.1-4.7,1.7-6.8,1.7c-0.5,0-1.5-1.3-3.1-4c-1.6-2.7-2.4-4.3-2.4-4.9c0-0.2,0.1-0.4,0.4-0.4
		c1.6-0.3,3.2-0.6,4.8-1c2-0.7,3-1.8,3-3.4c0-1.1-0.6-2.4-1.7-3.8c-2.1-2.5-3.2-3.8-3.3-4c-1.2-1.8-1.7-3.7-1.7-5.7
		c0-3.7,1.7-6.9,5.2-9.5c3.1-2.3,6.4-3.5,10-3.5c0.4,0,1.3,1.3,2.7,4S473,45.7,473,46.2z"/>
</g>
</svg>
