<?xml version="1.0" encoding="utf-8"?>
<!-- Generator: Adobe Illustrator 27.4.0, SVG Export Plug-In . SVG Version: 6.00 Build 0)  -->
<svg version="1.1" id="レイヤー_1" xmlns="http://www.w3.org/2000/svg" xmlns:xlink="http://www.w3.org/1999/xlink" x="0px"
	 y="0px" viewBox="0 0 400 100" style="enable-background:new 0 0 400 100;" xml:space="preserve">
<style type="text/css">
	.st0{fill:#FF6F0D;}
</style>
<g>
	<path class="st0" d="M41.9,35.5c0,2.2-0.1,5.6-0.3,10c-0.2,4.5-0.3,7.8-0.3,10.1v19.3c0,0.5-0.3,0.8-0.8,0.8c-0.5,0-1.2,0-2.1,0.1
		c-0.9,0-1.7,0.1-2.1,0.1c-0.5,0-1.3,0-2.3-0.1c-1-0.1-1.8-0.1-2.3-0.1c-0.4,0-0.8-0.3-1.3-1c-1.4-1.9-4.6-6.1-9.5-12.6
		c-1.3-1.8-3.4-4.5-6.2-8c-0.1-0.1-0.2-0.2-0.4-0.4c-0.2,0.1-0.2,0.4-0.2,0.6c0,2.3,0.1,5.7,0.2,10.2c0.1,4.5,0.2,7.9,0.2,10.2
		c0,0.7-0.3,1-0.8,1H3.5c-0.6,0-0.8-0.3-0.8-0.9c0-2.1,0.1-5.3,0.3-9.6s0.3-7.5,0.3-9.6c0-2.2-0.1-5.6-0.3-10.1
		c-0.2-4.5-0.3-7.8-0.3-10c0-0.4,0.4-0.6,1.1-0.6c1.1,0,2.5-0.1,4.2-0.2c0.4,0,1.2-0.2,2.3-0.4c1-0.2,1.7-0.3,2.3-0.3
		c0.2,0,0.6,0.3,1.1,1l10.9,15c1,1.3,2.5,3.3,4.4,5.9c0.5,0.6,0.9,0.9,1.3,0.9c0.3,0,0.4-0.8,0.4-2.3c0-2.1-0.1-5.1-0.3-9.3
		c-0.2-4.1-0.3-7.2-0.3-9.3c0-0.7,0.2-1.1,0.6-1.1c1.2,0,2.9,0,5.3-0.1c2.4-0.1,4.1-0.1,5.3-0.1C41.7,34.5,41.9,34.9,41.9,35.5z"/>
	<path class="st0" d="M74,59.7c0,2-0.6,3.1-1.9,3.4c-0.2,0-2.2,0.3-6.1,0.6c-2.3,0.3-5.7,0.6-10.3,0.9c0.3,1.3,1.1,2.2,2.5,2.9
		c1.1,0.5,2.4,0.8,3.9,0.8c1.7,0,3.5-0.5,5.2-1.4c0.7-0.5,1.5-0.9,2.2-1.4c0.4,0.2,1.1,1.2,2.1,3S73,71.5,73,72
		c0,0.1-0.1,0.4-0.4,0.7c-2.4,2.6-6.1,3.8-11.1,3.8c-4.6,0-8.4-1.4-11.2-4.1c-2.9-2.8-4.4-6.4-4.4-11c0-4.5,1.3-8.2,3.9-11
		c2.7-3,6.3-4.5,10.7-4.5c3.8,0,6.9,1.4,9.6,4.1C72.7,52.7,74,56,74,59.7z M63.7,58c0-1.2-0.4-2.3-1.3-3.2c-0.9-0.9-1.9-1.4-3.1-1.4
		c-1.2,0-2.2,0.5-3,1.6c-0.7,1-1.1,2.1-1.1,3.4c0,0.5,0.3,0.8,0.8,0.8c1.4,0,3.7-0.2,6.7-0.7C63.4,58.3,63.7,58.2,63.7,58z"/>
	<path class="st0" d="M119.2,55.1c0,3-0.2,5.2-0.7,6.4c-0.5,1.2-1.8,3.6-3.8,7c-2.1,3.5-3.5,5.7-4.3,6.5c-0.5,0.6-1.8,0.8-3.9,0.8
		c-1.7,0-2.8-0.1-3.2-0.2c-0.4-0.1-0.7-0.3-1-0.6c-1.1-1.1-2.8-3.8-5.2-8.1c-2.5,4.4-4.1,7.1-5,8.1c-0.5,0.5-1.7,0.8-3.8,0.8
		c-1.5,0-2.4-0.1-2.9-0.2c-1-0.3-2.6-2.4-5-6.4c-1.9-3.2-3.3-5.8-4.1-7.8c-0.5-1.2-0.8-3.4-0.8-6.4c0-3.6,0.1-5.8,0.3-6.6
		c0.1-0.5,0.5-0.8,1-0.8c0.9,0,2.2,0,4,0.1c1.8,0.1,3.1,0.1,4,0.1c0.4,0,0.7,0.3,0.7,1c0,0.6,0,1.4-0.1,2.6c0,1.2-0.1,2-0.1,2.6
		c0,2.4,0.1,4.1,0.2,5.2c0,0.4,0.6,1.5,1.6,3.3c1,1.8,1.6,2.7,1.9,2.7c0.4,0,1-0.9,1.9-2.6c0.8-1.5,1.3-2.6,1.5-3.3
		c0.2-0.7,0.4-2.5,0.4-5.3c0-0.6-0.1-1.5-0.2-2.6c-0.1-1.2-0.2-2-0.2-2.6c0-0.6,0.2-0.9,0.7-0.9c0.5,0,1.6,0,3.3,0l1.2,0
		c0,0-0.1,0-0.1,0c0,0-0.1,0,0,0h0.2h0.8c0.7,0,1.8,0,3.3,0.1c0.4,0.1,0.6,0.4,0.6,0.9c0,0.7,0,1.9-0.1,3.4
		c-0.1,1.5-0.1,2.6-0.1,3.4c0,2,0.1,3.3,0.2,3.8c0.2,0.7,0.7,1.7,1.4,3.2c0.9,1.8,1.5,2.6,1.8,2.6s1-0.9,2-2.7
		c0.9-1.7,1.4-2.8,1.5-3.3c0.1-0.7,0.1-4.2,0.1-10.4c0-0.7,0.2-1,0.6-1c0.9,0,2.3,0,4.1-0.1s3.2-0.1,4.1-0.1c0.5,0,0.9,0.3,1,0.8
		C119.1,49.3,119.2,51.5,119.2,55.1z"/>
	<path class="st0" d="M139.7,51.9c0,0.2-0.1,0.5-0.4,0.8c-0.5-0.1-1.1-0.2-1.6-0.2c-1.2,0-2.1,0.3-2.9,0.8c-0.9,0.6-1.4,1.4-1.4,2.5
		c0,0.7,0.5,1.6,1.5,2.6c1.5,1.6,2.4,2.6,2.8,3.2c1,1.5,1.5,3.1,1.5,4.8c0,1-0.2,2.1-0.6,3.2c-0.4,1.2-1,2.1-1.7,2.7
		c-1.4,1.2-3.1,2.3-5.1,3.2c-2.1,0.9-4,1.3-5.8,1.3c-0.4,0-1.3-1.1-2.6-3.2s-2-3.4-2-3.9c0-0.2,0.1-0.3,0.3-0.3
		c1.4-0.3,2.7-0.5,4.1-0.8c1.7-0.5,2.6-1.4,2.6-2.7c0-0.9-0.5-1.9-1.5-3c-1.8-2-2.7-3-2.8-3.1c-1-1.4-1.5-2.9-1.5-4.5
		c0-2.9,1.5-5.4,4.5-7.5c2.7-1.8,5.5-2.7,8.5-2.7c0.3,0,1.1,1.1,2.3,3.1C139.1,50.4,139.7,51.6,139.7,51.9z"/>
	<path class="st0" d="M196.6,74.3c0,0.9-0.5,1.3-1.5,1.3c-0.6,0-1.6,0-2.8,0.1s-2.2,0.1-2.8,0.1c-2.4,0-5.2-1.8-8.4-5.4
		c-1,1-2.6,2.3-4.7,4.1c-2.2,1.5-4.8,2.2-7.9,2.2c-3.1,0-5.6-1.1-7.4-3.3c-1.7-2-2.5-4.6-2.5-7.8c0-3.3,1-6,2.9-8.2
		c1.1-1.2,3.5-3,7.1-5.3c-1.2-3-1.8-5.4-1.8-7.1c0-3.3,0.9-5.9,2.8-7.8s4.4-2.9,7.7-2.9c2.8,0,5.1,0.8,6.7,2.3
		c1.7,1.6,2.5,3.8,2.5,6.6c0,1.9-0.7,3.6-2.1,5.3c-0.6,0.7-1.4,1.4-2.5,2.2c-1.4,1-2.3,1.7-2.6,2c0.5,0.7,1.2,1.7,2.2,3.1
		c0.5,0.6,1.3,1.6,2.4,2.9c1.5-2,2.9-3.4,4.1-4.2c1.6-1.1,3.5-1.7,5.6-1.7c1.1,0,1.8,0.1,2.1,0.2c0.4,0.2,0.6,0.8,0.6,1.8
		c0,2.3-0.2,4-0.5,5.2c-0.1,0.5-0.6,0.8-1.5,1c-1.4,0.3-2.3,0.6-2.8,0.8c-1.2,0.6-2.3,1.5-3.1,2.9c1.2,2,3.2,3,6.1,3
		c1.4,0,2.1,0.3,2.1,0.8V74.3z M177.5,65.1c-0.9-0.8-1.9-1.9-2.9-3.4c-1.7-2.3-2.6-3.5-2.7-3.6c-1.1,0.6-2.1,1.5-2.9,2.7
		c-0.9,1.2-1.3,2.5-1.3,3.7c0,1.3,0.4,2.3,1.1,3.1c0.7,0.9,1.7,1.3,3,1.3c1.1,0,2.3-0.4,3.4-1.1S177.1,66.1,177.5,65.1z M180.6,42.3
		c0-1.8-1.1-2.8-3.2-2.8c-1.1,0-1.9,0.3-2.7,0.9c-0.7,0.6-1.1,1.5-1.1,2.5c0,1.7,0.6,3.3,1.8,4.9C178.9,46,180.6,44.1,180.6,42.3z"
		/>
	<path class="st0" d="M244.6,43.5c0,0.4-0.2,0.6-0.6,0.6c-0.7,0-3.7-0.1-8.8-0.4C235,48.6,235,52,235,54c0,2.3,0.1,5.8,0.3,10.4
		s0.3,8.1,0.3,10.4c0,0.4-0.1,0.6-0.3,0.7c-0.1,0-0.3,0.1-0.8,0.1c-1.2,0.2-2.9,0.2-5.2,0.2c-2.5,0-4.3-0.1-5.3-0.2
		c-0.5-0.1-0.8-0.4-0.8-0.9c0-2.3,0.1-5.8,0.3-10.4s0.3-8.1,0.3-10.4c0-1.5-0.1-4.9-0.2-10.2c-3.9,0.4-7,0.6-9.3,0.6
		c-0.3,0-0.5-0.1-0.5-0.3c0-0.3,0.1-1,0.4-2.3c0.3-1.4,0.5-2.2,0.5-2.5c0.1-0.9,0.1-1.8,0.2-2.8c0.1-1.5,0.4-2.2,0.7-2.2
		c0,0,0.2,0,0.4,0c3.2,0.4,7.8,0.6,14,0.6c1.8,0,5-0.2,9.7-0.6c2.5-0.2,3.8-0.3,3.8-0.3c0.4,0,0.6,0,0.7,0.1c0.1,0,0.1,0.2,0.1,0.6
		c0,0.5,0,1.3-0.1,2.2c0,1-0.1,1.8-0.1,2.2c0,0.5,0.1,1.2,0.2,2.2C244.5,42.3,244.6,43,244.6,43.5z"/>
	<path class="st0" d="M275.7,61.2c0,4.5-1.4,8.1-4.1,10.8s-6.3,4.2-10.7,4.2c-4.3,0-7.8-1.4-10.6-4.1s-4.2-6.2-4.2-10.5
		c0-4.5,1.3-8.2,4-11c2.7-2.8,6.2-4.2,10.8-4.2c4.4,0,8,1.4,10.7,4.1C274.3,53.2,275.7,56.8,275.7,61.2z M266.1,61.2
		c0-1.5-0.5-2.9-1.4-4.1c-1-1.2-2.2-1.8-3.7-1.8c-1.5,0-2.8,0.6-3.8,1.8c-0.9,1.1-1.4,2.5-1.4,4c0,1.6,0.5,2.9,1.4,4.1
		c1,1.2,2.3,1.8,3.8,1.8c1.5,0,2.8-0.6,3.8-1.8C265.6,64.2,266.1,62.8,266.1,61.2z"/>
	<path class="st0" d="M311.6,61.6c0,4.2-1.2,7.6-3.7,10.4c-2.5,2.9-5.9,4.3-10,4.3c-1.5,0-3.1-0.4-4.8-1.1s-2.5-1.1-2.3-1.1
		c-0.3,0-0.4,0.3-0.4,0.9c0,1,0,2.5,0.1,4.5c0.1,2,0.1,3.5,0.1,4.5c0,0.6-0.3,0.9-1,0.9l-6,0c-1.3,0-2.2,0-2.6-0.1
		c-0.6-0.1-0.9-0.5-0.9-1.1l0.1-22.6c0-4.6-0.3-8.4-1-11.5c0-0.2-0.1-0.4-0.1-0.5c0-0.3,0.1-0.5,0.4-0.6c0.8-0.3,2.2-0.6,4.4-0.9
		c2.1-0.3,3.6-0.5,4.5-0.5c0.8,0,1.2,0.5,1.3,1.5c0.1,1,0.2,1.5,0.4,1.5c-0.2,0,0.6-0.5,2.5-1.6c1.9-1.1,3.6-1.6,5.1-1.6
		c4.2,0,7.6,1.4,10.2,4.2C310.3,53.7,311.6,57.2,311.6,61.6z M300.7,61.5c0-1.6-0.5-2.9-1.4-4.1c-1-1.2-2.3-1.8-3.8-1.8
		c-1.6,0-2.8,0.6-3.8,1.8c-0.8,1.1-1.2,2.5-1.2,4.1c0,1.7,0.4,3,1.3,4.1c0.9,1.2,2.2,1.8,3.8,1.8C299,67.4,300.7,65.4,300.7,61.5z"
		/>
	<path class="st0" d="M326.2,62.2c0,1.4,0,3.5,0.1,6.4c0.1,2.8,0.1,4.9,0.1,6.3c0,0.4-0.2,0.7-0.7,0.7c-0.7,0.1-2.2,0.2-4.5,0.2
		c-2.3,0-3.8-0.1-4.5-0.2c-0.4-0.1-0.7-0.2-0.8-0.4c0-0.1-0.1-0.4-0.1-0.9c0-1.3,0-3.4,0.1-6.1c0.1-2.7,0.1-4.7,0.1-6.1
		c0-5.5-0.2-10-0.6-13.2c0-0.3-0.1-0.5-0.1-0.6c0-0.4,0.3-0.6,0.8-0.6c0.5,0,1.4,0.1,2.5,0.2s2,0.2,2.5,0.2s1.4,0,2.5-0.1
		c1.1-0.1,2-0.1,2.5-0.1c0.5,0,0.7,0.2,0.7,0.6c0,0.1,0,0.3-0.1,0.6C326.4,52.8,326.2,57.2,326.2,62.2z M327,40.4
		c0,3.4-1.9,5.1-5.7,5.1c-1.6,0-3-0.4-4.1-1.3c-1.2-0.9-1.8-2.2-1.8-3.8c0-1.5,0.6-2.8,1.8-3.8c1.1-0.9,2.5-1.3,4-1.3
		c1.5,0,2.8,0.5,4,1.4C326.4,37.7,327,38.9,327,40.4z"/>
	<path class="st0" d="M351.3,56.4c0,0-0.6-0.2-1.8-0.5s-2.1-0.5-2.8-0.5c-1.7,0-3.1,0.5-4.2,1.6c-1,1-1.6,2.4-1.6,4.2
		c0,1.8,0.6,3.2,1.7,4.2s2.6,1.5,4.4,1.5c0.9,0,1.8-0.2,2.9-0.7s1.6-0.7,1.5-0.7c0.3,0,0.8,1.2,1.3,3.7c0.4,2.3,0.7,3.8,0.7,4.5
		s-1.2,1.4-3.6,1.9c-1.9,0.4-3.4,0.6-4.5,0.6c-4.3,0-7.8-1.4-10.6-4.3s-4.2-6.5-4.2-10.8c0-4.3,1.4-7.9,4.2-10.8
		c2.8-2.9,6.3-4.4,10.6-4.4c2.9,0,5.5,0.6,7.7,1.9c0.5,0.3,0.8,0.5,0.8,0.8c0,0.3-0.3,1.4-0.9,3.5c-0.5,2-0.9,3.2-1.1,3.6
		S351.4,56.4,351.3,56.4z"/>
	<path class="st0" d="M374,51.9c0,0.2-0.1,0.5-0.4,0.8c-0.5-0.1-1.1-0.2-1.6-0.2c-1.2,0-2.1,0.3-2.9,0.8c-0.9,0.6-1.4,1.4-1.4,2.5
		c0,0.7,0.5,1.6,1.5,2.6c1.5,1.6,2.4,2.6,2.8,3.2c1,1.5,1.5,3.1,1.5,4.8c0,1-0.2,2.1-0.6,3.2c-0.4,1.2-1,2.1-1.7,2.7
		c-1.4,1.2-3.1,2.3-5.1,3.2c-2.1,0.9-4,1.3-5.8,1.3c-0.4,0-1.3-1.1-2.6-3.2s-2-3.4-2-3.9c0-0.2,0.1-0.3,0.3-0.3
		c1.4-0.3,2.7-0.5,4.1-0.8c1.7-0.5,2.6-1.4,2.6-2.7c0-0.9-0.5-1.9-1.5-3c-1.8-2-2.7-3-2.8-3.1c-1-1.4-1.5-2.9-1.5-4.5
		c0-2.9,1.5-5.4,4.5-7.5c2.7-1.8,5.5-2.7,8.5-2.7c0.3,0,1.1,1.1,2.3,3.1C373.4,50.4,374,51.6,374,51.9z"/>
</g>
</svg>
